HIERARCHY
ROOT Pelvis
{
	OFFSET 0.000000 0.000000 0.000000
	CHANNELS 6 Xposition Yposition Zposition Xrotation Yrotation Zrotation
	JOINT LeftUpLeg_virtual
	{
		OFFSET 0.000000 0.000000 0.000000
		CHANNELS 3 Xrotation Yrotation Zrotation
		JOINT LeftUpLeg
		{
			OFFSET 8.479700 -4.795502 -0.379100
			CHANNELS 3 Xrotation Yrotation Zrotation
			JOINT LeftLeg
			{
				OFFSET 0.024144 -32.555107 0.112900
				CHANNELS 3 Xrotation Yrotation Zrotation
				JOINT LeftFoot
				{
					OFFSET -0.024144 -32.638630 -3.012600
					CHANNELS 3 Xrotation Yrotation Zrotation
					JOINT LeftToeBase
					{
						OFFSET 0.970200 -13.225400 11.864200
						CHANNELS 3 Xrotation Yrotation Zrotation
						End Site
						{
							OFFSET 0 0 0
						}
					}
				}
			}
		}
	}
	JOINT RightUpLeg_virtual
	{
		OFFSET 0.000000 0.000000 0.000000
		CHANNELS 3 Xrotation Yrotation Zrotation
		JOINT RightUpLeg
		{
			OFFSET -8.479700 -4.795502 -0.379100
			CHANNELS 3 Xrotation Yrotation Zrotation
			JOINT RightLeg
			{
				OFFSET -0.023144 -32.555092 0.112900
				CHANNELS 3 Xrotation Yrotation Zrotation
				JOINT RightFoot
				{
					OFFSET 0.023144 -32.638641 -3.012700
					CHANNELS 3 Xrotation Yrotation Zrotation
					JOINT RightToeBase
					{
						OFFSET -0.970200 -13.225400 11.864200
						CHANNELS 3 Xrotation Yrotation Zrotation
						End Site
						{
							OFFSET 0 0 0
						}
					}
				}
			}
		}
	}
	JOINT Hips_virtual
	{
		OFFSET 0.000000 0.000000 0.000000
		CHANNELS 3 Xrotation Yrotation Zrotation
		JOINT Hips
		{
			OFFSET -0.000000 -0.000000 -0.000000
			CHANNELS 3 Xrotation Yrotation Zrotation
			JOINT Spine
			{
				OFFSET 0.000000 7.722000 1.166200
				CHANNELS 3 Xrotation Yrotation Zrotation
				JOINT Spine1
				{
					OFFSET 0.000000 12.024101 0.248800
					CHANNELS 3 Xrotation Yrotation Zrotation
					JOINT Spine2
					{
						OFFSET 0.000000 11.502998 -0.491200
						CHANNELS 3 Xrotation Yrotation Zrotation
						JOINT Neck_virtual
						{
							OFFSET 0.000000 0.000000 0.000000
							CHANNELS 3 Xrotation Yrotation Zrotation
							JOINT Neck
							{
								OFFSET 0.000000 18.430702 -3.123100
								CHANNELS 3 Xrotation Yrotation Zrotation
								JOINT Head
								{
									OFFSET 0.000000 9.051102 1.034000
									CHANNELS 3 Xrotation Yrotation Zrotation
									End Site
									{
										OFFSET 0 0 0
									}
								}
							}
						}
						JOINT LeftShoulder_virtual
						{
							OFFSET 0.000000 0.000000 0.000000
							CHANNELS 3 Xrotation Yrotation Zrotation
							JOINT LeftShoulder
							{
								OFFSET 6.197800 13.665199 -4.064700
								CHANNELS 3 Xrotation Yrotation Zrotation
								JOINT LeftArm
								{
									OFFSET 7.778100 -0.187103 -1.709300
									CHANNELS 3 Xrotation Yrotation Zrotation
									JOINT LeftForeArm
									{
										OFFSET 22.049376 0.000000 0.000000
										CHANNELS 3 Xrotation Yrotation Zrotation
										JOINT LeftHand
										{
											OFFSET 23.009392 0.000000 0.000000
											CHANNELS 3 Xrotation Yrotation Zrotation
											End Site
											{
												OFFSET 0 0 0
											}
										}
									}
								}
							}
						}
						JOINT RightShoulder_virtual
						{
							OFFSET 0.000000 0.000000 0.000000
							CHANNELS 3 Xrotation Yrotation Zrotation
							JOINT RightShoulder
							{
								OFFSET -6.197800 13.665199 -4.064700
								CHANNELS 3 Xrotation Yrotation Zrotation
								JOINT RightArm
								{
									OFFSET -7.778100 -0.187103 -1.709300
									CHANNELS 3 Xrotation Yrotation Zrotation
									JOINT RightForeArm
									{
										OFFSET -22.049376 0.000000 0.000000
										CHANNELS 3 Xrotation Yrotation Zrotation
										JOINT RightHand
										{
											OFFSET -23.009392 0.000000 0.000000
											CHANNELS 3 Xrotation Yrotation Zrotation
											End Site
											{
												OFFSET 0 0 0
											}
										}
									}
								}
							}
						}
					}
				}
			}
		}
	}
}
MOTION
Frames: 12
Frame Time: 0.03333333
5.788567 75.907997 -9.295757 0.000000 0.000000 0.000000 10.787201 11.127064 -0.521176 -5.391373 14.834380 9.428624 35.219444 -3.262205 2.279256 -4.272193 -2.345165 -4.942035 0.000000 0.000000 0.000000 9.736213 8.704555 -0.690052 -44.048238 -5.503168 -6.853159 51.417333 -1.331971 3.646162 -11.975998 1.688393 -2.442799 0.000000 0.000000 0.000000 10.668731 7.907198 -0.128038 -0.199871 -3.009913 -0.375103 -0.245090 -1.975767 -0.646674 1.940438 -3.195224 2.532487 0.000000 0.000000 0.000000 1.851244 -3.125865 2.806008 -4.061033 0.396714 3.045739 0.000000 0.000000 0.000000 2.103618 -3.537726 3.127588 -0.662783 3.758939 4.989974 -40.940451 -20.079706 -49.457250 168.748470 -61.203099 168.521736 0.000000 0.000000 0.000000 3.118296 -3.493027 2.550595 -1.529842 -16.562758 6.639740 -53.713055 16.369184 65.472295 0.527805 65.333696 -0.499071 0.000000 0.000000 0.000000 
5.612303 77.413147 -11.048561 0.000000 0.000000 0.000000 11.094616 10.338737 -1.459922 -16.159154 14.284136 12.709069 49.193939 -3.496884 2.226697 2.788026 -1.682007 -1.300791 0.000000 0.000000 0.000000 9.931663 8.837179 -1.249164 -43.136965 -6.201675 -6.668106 50.641502 -1.356037 3.614353 -10.630550 2.207875 -1.915874 0.000000 0.000000 0.000000 11.918233 8.985077 -0.565894 -0.088108 -3.056180 -0.120632 2.930283 -1.367230 0.083749 2.138743 -2.903233 1.860808 0.000000 0.000000 0.000000 2.039578 -2.795658 2.046850 -3.741972 1.099159 2.464854 0.000000 0.000000 0.000000 1.774122 -3.153351 3.008092 -1.694969 -0.328874 13.720820 -56.958358 -10.109974 -44.704906 169.289476 -65.836637 167.619850 0.000000 0.000000 0.000000 4.028966 -3.048959 2.150732 -2.519046 -14.859440 0.071691 -63.847809 9.638454 65.291711 0.527805 65.333696 -0.499071 0.000000 0.000000 0.000000 
5.427891 78.380989 -12.622635 0.000000 0.000000 0.000000 11.764992 9.334598 -1.227286 -29.155752 12.417470 15.554613 67.704120 -2.422103 2.067366 7.162634 -0.535063 3.503923 0.000000 0.000000 0.000000 10.484681 8.464429 -1.102241 -42.845220 -6.098953 -6.175917 52.917154 -2.918566 2.815316 -11.536734 3.296876 -1.972618 0.000000 0.000000 0.000000 13.125845 9.448003 -0.603491 -0.297298 -2.773127 -0.030662 6.294692 -0.936807 -0.262947 2.366445 -2.647905 1.281643 0.000000 0.000000 0.000000 2.517985 -2.538087 1.287882 -3.213092 1.872759 1.681352 0.000000 0.000000 0.000000 1.768406 -2.790669 2.890973 -2.031056 -3.996484 21.645954 -67.275553 -2.924481 -35.901042 168.602878 -72.966330 165.786928 0.000000 0.000000 0.000000 4.790438 -2.758263 1.509031 -3.454894 -13.257555 -6.505659 -70.261814 3.267700 61.762361 0.527805 65.333696 -0.499071 0.000000 0.000000 0.000000 
5.235858 78.854980 -13.753838 0.000000 0.000000 0.000000 13.077211 7.851881 -0.340391 -41.496654 9.801224 17.321763 83.522313 -0.955483 1.552309 8.863265 0.261831 8.143772 0.000000 0.000000 0.000000 11.542503 7.461212 -0.504989 -42.453826 -5.248359 -5.345245 54.562809 -4.851603 2.039576 -12.910816 4.486003 -2.546911 0.000000 0.000000 0.000000 14.049064 8.816523 -0.421413 -0.310569 -2.581098 -0.148082 8.948286 -0.670480 -1.693432 2.516619 -2.404099 1.085101 0.000000 0.000000 0.000000 2.939958 -2.282390 0.887123 -3.183810 2.618026 0.786889 0.000000 0.000000 0.000000 1.982981 -2.442430 2.818719 -2.100242 -6.214633 26.365661 -71.311416 -0.594325 -27.625458 165.898069 -79.216739 162.999924 0.000000 0.000000 0.000000 5.166383 -2.620375 0.841673 -4.133487 -11.440382 -11.806399 -72.335603 -0.688703 57.995211 0.527805 65.333696 -0.499071 0.000000 0.000000 0.000000 
5.026378 79.234612 -14.369522 0.000000 0.000000 0.000000 14.549749 5.630308 0.884666 -50.144667 8.021401 17.792221 90.785939 -0.422089 1.124643 8.175098 -0.321635 11.205642 0.000000 0.000000 0.000000 12.642602 6.150422 0.032458 -40.893248 -4.688667 -4.522243 53.062158 -5.909242 1.939150 -13.311908 5.361962 -3.676352 0.000000 0.000000 0.000000 14.825375 7.713886 -0.302589 -0.012458 -2.182692 -0.382482 10.059529 -0.868230 -3.776455 2.539488 -2.104400 1.343286 0.000000 0.000000 0.000000 3.126896 -1.971507 0.997244 -3.950038 3.015986 -0.020397 0.000000 0.000000 0.000000 2.386789 -2.119005 2.831144 -2.394793 -6.042612 26.049346 -68.804594 -1.659830 -23.929923 164.753192 -81.717954 162.873429 0.000000 0.000000 0.000000 5.117788 -2.549866 0.337156 -4.307066 -9.708261 -14.142528 -70.120320 -2.720183 56.237134 0.527805 65.333696 -0.499071 0.000000 0.000000 0.000000 
4.607957 79.785896 -14.320091 0.000000 0.000000 0.000000 15.844652 3.419881 1.204313 -54.482647 7.368193 17.560468 87.265359 -1.489813 1.022359 6.071785 -2.535717 11.952184 0.000000 0.000000 0.000000 14.017769 4.456637 0.130685 -38.065983 -4.778474 -3.483558 47.900390 -5.773878 2.550471 -12.223530 5.641699 -4.936426 0.000000 0.000000 0.000000 15.636178 6.393206 -0.703539 0.337513 -1.851750 -0.485000 9.275859 -1.113327 -5.750117 2.469087 -1.747743 1.919317 0.000000 0.000000 0.000000 3.122125 -1.571370 1.554700 -5.549826 3.059817 -0.487713 0.000000 0.000000 0.000000 2.869136 -1.812114 2.874312 -2.800089 -3.696639 20.525174 -61.046202 -4.107566 -25.426595 169.285474 -79.876084 169.036404 0.000000 0.000000 0.000000 4.746394 -2.383919 0.119112 -3.882020 -8.274422 -12.699057 -64.198423 -3.352241 57.168673 0.527805 65.333696 -0.499071 0.000000 0.000000 0.000000 
4.278735 80.152954 -13.782810 0.000000 0.000000 0.000000 16.909434 1.215016 0.469761 -55.609747 8.052562 17.124900 75.206489 -4.301049 0.722804 3.191360 -5.491391 10.475470 0.000000 0.000000 0.000000 15.450188 2.425318 -0.363128 -34.151352 -5.314706 -2.235039 41.251334 -5.125664 3.611509 -10.782869 5.353422 -5.923080 0.000000 0.000000 0.000000 16.050617 4.595839 -1.495582 0.662146 -1.428734 -0.469977 6.932681 -0.948196 -7.091715 2.461034 -1.360551 2.469740 0.000000 0.000000 0.000000 3.101339 -1.114176 2.248972 -7.350658 2.902386 -0.363044 0.000000 0.000000 0.000000 3.167814 -1.404754 2.787049 -2.847209 0.290196 11.232241 -50.236502 -6.547613 -30.685492 174.208974 -76.674474 175.412399 0.000000 0.000000 0.000000 4.471375 -2.142609 0.161047 -3.013784 -7.270228 -7.447229 -56.038205 -2.791602 59.057060 0.527805 65.333696 -0.499071 0.000000 0.000000 0.000000 
4.246932 79.808273 -12.875660 0.000000 0.000000 0.000000 17.900531 -0.894800 -0.654394 -55.472966 9.397112 16.370299 62.367038 -7.772890 -0.410716 -1.139606 -8.018397 7.762678 0.000000 0.000000 0.000000 16.952190 0.640989 -1.542505 -29.710753 -6.289285 -0.828673 36.676856 -5.001102 4.545249 -11.202821 4.736961 -6.389411 0.000000 0.000000 0.000000 16.151224 2.673455 -2.367063 0.711565 -0.853428 -0.559697 3.916423 -0.564558 -7.444207 2.646762 -1.013305 2.669097 0.000000 0.000000 0.000000 3.189724 -0.708109 2.687648 -8.563165 2.431646 0.327983 0.000000 0.000000 0.000000 3.097319 -0.952140 2.546204 -2.013735 5.259223 0.343272 -37.899982 -7.835834 -37.799715 177.839917 -74.794260 179.443741 0.000000 0.000000 0.000000 4.591350 -1.968472 0.358136 -2.104988 -6.954251 0.783614 -47.738453 -3.031580 60.049042 0.527805 65.333696 -0.499071 0.000000 0.000000 0.000000 
4.399120 78.448967 -11.707283 0.000000 0.000000 0.000000 18.932941 -1.809440 -1.730726 -55.727134 9.995895 15.092643 55.063575 -10.169329 -1.690815 -6.516485 -9.043828 4.915353 0.000000 0.000000 0.000000 18.258605 -1.454230 -2.528201 -25.793789 -7.091616 0.588158 35.895281 -5.776504 4.711634 -14.287799 4.010941 -6.134878 0.000000 0.000000 0.000000 15.983568 1.054203 -3.155720 0.377082 -0.654957 -0.770018 0.917943 0.019869 -6.691285 2.895192 -0.760726 2.294087 0.000000 0.000000 0.000000 3.335262 -0.383770 2.594379 -9.161585 1.824284 1.320069 0.000000 0.000000 0.000000 2.729813 -0.508060 2.183622 -0.399325 9.711031 -9.704729 -24.896511 -7.525036 -44.028195 -179.573391 -74.558741 -178.537347 0.000000 0.000000 0.000000 5.155586 -1.839745 0.620315 -1.392449 -7.685752 9.458475 -40.312449 -4.837378 59.526437 0.527805 65.333696 -0.499071 0.000000 0.000000 0.000000 
4.734481 76.442162 -10.635054 0.000000 0.000000 0.000000 19.346031 -2.478749 -2.143765 -56.237216 9.998109 13.750210 54.991571 -10.854709 -1.629720 -12.044417 -8.285252 2.627949 0.000000 0.000000 0.000000 18.945483 -3.452179 -2.958157 -22.590965 -7.295227 1.429740 38.211244 -7.092037 4.269632 -19.044154 3.478032 -5.163481 0.000000 0.000000 0.000000 15.347044 -0.583265 -3.450471 -0.142752 -0.618901 -1.022827 -1.119807 0.511855 -5.366317 2.959934 -0.547734 1.373220 0.000000 0.000000 0.000000 3.441164 -0.140133 1.933205 -8.790687 1.094216 2.419267 0.000000 0.000000 0.000000 2.190003 -0.106620 1.638852 1.326711 12.911775 -17.148243 -12.768314 -6.051851 -48.599484 -178.641234 -75.535820 -178.842110 0.000000 0.000000 0.000000 6.109166 -1.778505 0.792716 -0.764969 -9.109767 15.077448 -33.781173 -6.323919 57.959824 0.527805 65.333696 -0.499071 0.000000 0.000000 0.000000 
5.143517 74.759544 -10.054405 0.000000 0.000000 0.000000 18.535583 -3.559985 -2.604703 -56.099468 9.625734 12.570021 59.118818 -9.630610 -0.107028 -16.968435 -6.345376 1.553435 0.000000 0.000000 0.000000 19.110736 -5.383062 -2.856348 -20.410740 -7.192823 1.489601 41.061031 -7.958495 3.789185 -22.867016 3.237097 -3.670956 0.000000 0.000000 0.000000 14.707395 -2.169650 -3.444673 -0.527090 -0.682385 -1.120418 -1.760496 0.650716 -4.119056 2.680210 -0.393848 0.327406 0.000000 0.000000 0.000000 3.358523 0.021017 1.063169 -7.504326 0.134392 3.410216 0.000000 0.000000 0.000000 1.672806 0.177582 1.021125 2.438086 14.876488 -20.881958 -4.693205 -3.718628 -51.474379 178.600718 -75.146008 177.303788 0.000000 0.000000 0.000000 6.871966 -1.696613 0.830617 -0.457348 -10.032984 16.415675 -29.804985 -5.905908 56.424562 0.527805 65.333696 -0.499071 0.000000 0.000000 0.000000 
5.386720 74.182983 -10.004253 0.000000 0.000000 0.000000 16.603980 -3.992159 -3.419489 -53.881481 9.353801 11.541720 60.945307 -7.201076 1.677585 -19.798201 -4.248760 1.401888 0.000000 0.000000 0.000000 18.673225 -7.554833 -2.105117 -19.532787 -6.999368 0.572428 42.065185 -7.258414 3.703584 -22.641075 3.420782 -1.960615 0.000000 0.000000 0.000000 14.034906 -3.524937 -3.491186 -0.794449 -0.961361 -0.901179 -1.369408 0.508024 -3.339221 2.085398 -0.304968 -0.362908 0.000000 0.000000 0.000000 3.016801 0.147105 0.488665 -5.895588 -0.825749 4.129447 0.000000 0.000000 0.000000 1.390436 0.341892 0.399027 2.420597 15.468992 -20.374881 -3.328395 -1.060094 -52.269430 176.114119 -71.409689 174.621668 0.000000 0.000000 0.000000 6.819695 -1.404921 0.867172 -0.810580 -9.577372 14.356527 -31.220064 -2.589076 55.008482 0.527805 65.333696 -0.499071 0.000000 0.000000 0.000000 
